<?xml version="1.0" encoding="utf-8"?>
<!-- Generator: Adobe Illustrator 25.2.1, SVG Export Plug-In . SVG Version: 6.00 Build 0)  -->
<svg version="1.1" id="piezas" xmlns="http://www.w3.org/2000/svg" xmlns:xlink="http://www.w3.org/1999/xlink" x="0px" y="0px"
	 viewBox="0 0 61.4 26.2" style="enable-background:new 0 0 61.4 26.2;" xml:space="preserve">
<style type="text/css">
	.st0{fill:url(#Bytes_sutudio_1_);}
</style>
<linearGradient id="Bytes_sutudio_1_" gradientUnits="userSpaceOnUse" x1="-2152.1067" y1="630.1974" x2="-2151.679" y2="628.9047" gradientTransform="matrix(61.42 0 0 -26.16 132196.1719 16483.2598)">
	<stop  offset="0" style="stop-color:#EFE160"/>
	<stop  offset="1" style="stop-color:#E49541"/>
</linearGradient>
<path id="Bytes_sutudio" class="st0" d="M30.6,15.9c-0.7-0.1-1-0.2-1-0.6c0-0.4,0.2-0.5,0.7-0.5c0.5,0,1,0.2,1.3,0.5l0.1,0.1
	c0.1,0,0.1,0,0.1-0.1l0.5-0.7v-0.1c0-0.1,0-0.1-0.1-0.1c-0.6-0.5-1.3-0.7-2-0.7c-1.3,0-2.3,0.7-2.3,1.9c0,1.1,0.6,1.4,1.8,1.8
	c0.8,0.2,1.1,0.4,1.1,0.6c0,0.2-0.2,0.5-0.8,0.5c-0.5,0-1.1-0.2-1.4-0.5l-0.1-0.1c0,0-0.1,0-0.1,0.1l-0.5,0.7c0,0-0.1,0.1-0.1,0.2
	s0.1,0.1,0.1,0.2c0.6,0.5,1.3,0.7,2.1,0.7c1.4,0,2.3-0.7,2.3-1.9C32.5,16.7,31.9,16.2,30.6,15.9z M49,11.8v-1.2h-2.4
	c-0.1,0-0.1,0-0.1-0.1V9.8c0-0.1,0-0.1,0.1-0.1h1.9c0.1,0,0.2-0.1,0.2-0.2V8.4h-2.3V7.7c0-0.1,0-0.1,0.1-0.1H49V6.3
	c0-0.1-0.1-0.2-0.2-0.2l0,0h-3.6c-0.1,0-0.2,0-0.2,0.2v5.6h3.7C48.9,12.1,49,11.9,49,11.8L49,11.8L49,11.8z M38.7,13.6
	c-0.1,0-0.2,0-0.2,0.1c0,0,0,0,0,0.1v3.1c-0.1,1.3,0.8,2.5,2,2.6c0.1,0,0.4,0,0.5,0c1.3,0.1,2.5-0.8,2.7-2.1l0,0c0-0.1,0-0.4,0-0.5
	v-3.3h-1.2c-0.1,0-0.2,0-0.2,0.2v3c0,1-0.5,1.4-1.2,1.4c-0.7,0-1.2-0.5-1.2-1.4v-3.2L38.7,13.6z M41.3,11.9h1.2c0.1,0,0.2,0,0.2-0.1
	c0,0,0,0,0-0.1V7.4h1.4c0.1,0,0.2,0,0.2-0.1l0,0V6.1h-4.5c-0.1,0-0.2,0-0.2,0.2v1.1h1.7C41.3,7.4,41.3,11.9,41.3,11.9z M26.4,3.5
	v19.2c0,1.5-1.3,2.9-2.9,2.9H4.4c-1.5,0-2.9-1.2-2.9-2.9V3.5c0-1.5,1.3-2.9,2.9-2.9h19.2C25.1,0.6,26.4,1.9,26.4,3.5L26.4,3.5z
	 M8,17.8l6.3-4.8L8,8.3C8,8.3,8,17.8,8,17.8z M18.1,12.5L18.1,12.5c0.8-0.8,1.3-2.1,1.3-3.3c-0.1-2.5-2.1-4.4-4.6-4.4H8v2.9l7,5.4
	l-7,5.5c0.6,2.9,2.6,2.7,2.6,2.7h5.2c2.6,0,3.9-2,4.2-4.6C20,15,19.3,13.5,18.1,12.5L18.1,12.5z M35.7,9.9v2.1h1.2
	c0.1,0,0.2,0,0.2-0.1c0,0,0,0,0-0.1V9.9l2-3.4V6.3c0-0.1,0-0.1-0.1-0.1H38c-0.1,0-0.4,0.1-0.4,0.2l-1.2,2l-1.2-2
	c0-0.1-0.2-0.2-0.4-0.2h-1.2c-0.1,0-0.1,0-0.1,0.1v0.1L35.7,9.9z M16.7,14.7c-0.4-0.2-0.8-0.4-1.2-0.4h-1.1l-3.7,3v1.2h5.1
	c1,0,1.7-0.7,1.8-1.7C17.7,16,17.4,15.2,16.7,14.7L16.7,14.7z M15.9,11c0.6-0.8,0.6-2-0.2-2.7c0,0,0,0-0.1-0.1
	c-0.4-0.4-0.8-0.5-1.3-0.5h-3.8v1.2l3.9,3C15,11.8,15.6,11.5,15.9,11L15.9,11z M50.3,16.5c0,1.8-1.2,3-3.3,3h-2.1v-5.6
	c0-0.1,0.1-0.2,0.2-0.2h2C49.3,13.6,50.4,14.7,50.3,16.5L50.3,16.5z M48.9,16.5c0-1-0.6-1.5-1.8-1.5h-0.6c-0.1,0-0.1,0-0.1,0.1v2.9
	c0,0.1,0,0.1,0.1,0.1H47C48.3,18.1,48.9,17.5,48.9,16.5z M51.3,13.8v5.6h1.4v-5.8h-1.2C51.4,13.6,51.3,13.6,51.3,13.8L51.3,13.8
	L51.3,13.8z M52.2,8.4c-0.8-0.1-1-0.2-1-0.5c0-0.4,0.2-0.5,0.7-0.5c0.5,0,1,0.2,1.3,0.5L53.4,8c0,0,0.1,0,0.1-0.1L54,7.2V7.1
	c0-0.1,0-0.1-0.1-0.1c-0.6-0.5-1.3-0.7-2.1-0.7c-1.3,0-2.3,0.7-2.3,1.9c0,1.1,0.6,1.5,1.8,1.8c0.8,0.2,1.1,0.4,1.1,0.6
	c0,0.2-0.2,0.5-0.8,0.5c-0.5,0-1.1-0.2-1.4-0.5L50,10.4c0,0-0.1,0-0.1,0.1l-0.5,0.7c0,0-0.1,0.1-0.1,0.2c0,0.1,0,0.1,0.1,0.2
	c0.6,0.5,1.3,0.7,2.1,0.7c1.4,0,2.3-0.7,2.3-1.9C54,9.3,53.4,8.7,52.2,8.4L52.2,8.4z M59.8,16.5c0,1.7-1.3,3.1-3,3.2
	c-1.7,0-3.1-1.3-3.2-3c0-1.7,1.3-3.1,3-3.2h0.1c1.7-0.1,3,1.2,3.1,2.9l0,0L59.8,16.5L59.8,16.5z M58.4,16.5c0-1-0.6-1.7-1.5-1.7
	c-1,0-1.7,0.6-1.7,1.5v0.2c0,0.8,0.6,1.7,1.4,1.7l0,0h0.1C57.7,18.2,58.4,17.5,58.4,16.5L58.4,16.5L58.4,16.5z M33.2,10.2
	c0,1.2-0.8,1.8-2.4,1.8h-2.4V6.3c0-0.1,0.1-0.2,0.2-0.2h2.1c1.4,0,2.3,0.5,2.3,1.7c-0.6,0.4-1,1.1-0.6,1.8C32.6,9.8,33,10,33.2,10.2
	z M29.9,8.3c0,0.1,0,0.1,0.1,0.1h0.7c0.6,0,0.8-0.1,0.8-0.5s-0.2-0.5-0.8-0.5H30c-0.1,0-0.1,0-0.1,0.1V8.3z M31.8,10.2
	c0-0.4-0.2-0.5-0.8-0.5h-1.1v1c0,0.1,0,0.1,0.1,0.1h0.8C31.5,10.7,31.8,10.6,31.8,10.2L31.8,10.2z M33.1,13.8v1.1h1.7v4.5h1.2
	c0.1,0,0.2-0.1,0.2-0.2v-4.3h1.4c0.1,0,0.2-0.1,0.2-0.2v-1.1h-4.5C33.1,13.6,33.1,13.7,33.1,13.8L33.1,13.8z"/>
</svg>
