<?xml version="1.0" encoding="utf-8"?>
<!-- Generator: Adobe Illustrator 25.2.1, SVG Export Plug-In . SVG Version: 6.00 Build 0)  -->
<svg version="1.1" id="piezas" xmlns="http://www.w3.org/2000/svg" xmlns:xlink="http://www.w3.org/1999/xlink" x="0px" y="0px"
	 viewBox="0 0 61.4 26.2" style="enable-background:new 0 0 61.4 26.2;" xml:space="preserve">
<style type="text/css">
	.st0{fill:url(#Bytes_sutudio_1_);}
</style>
<linearGradient id="Bytes_sutudio_1_" gradientUnits="userSpaceOnUse" x1="-1979.9115" y1="-182.6925" x2="-1979.5519" y2="-181.6058" gradientTransform="matrix(61.42 0 0 26.16 121622.6797 4781.02)">
	<stop  offset="0" style="stop-color:#EFE160"/>
	<stop  offset="1" style="stop-color:#E49541"/>
</linearGradient>
<path id="Bytes_sutudio" class="st0" d="M30.6,17.4c-0.6-0.1-0.8-0.2-0.8-0.5c0-0.3,0.2-0.4,0.6-0.4c0.4,0,0.8,0.2,1.1,0.4
	c0,0,0.1,0.1,0.1,0.1c0.1,0,0.1,0,0.1-0.1l0.4-0.6c0,0,0-0.1,0-0.1c0-0.1,0-0.1-0.1-0.1c-0.5-0.4-1.1-0.6-1.7-0.6
	c-1.1,0-1.9,0.6-1.9,1.6c0,0.9,0.5,1.2,1.5,1.5c0.7,0.2,0.9,0.3,0.9,0.5s-0.2,0.4-0.7,0.4c-0.4,0-0.9-0.2-1.2-0.4
	c0,0-0.1-0.1-0.1-0.1c0,0-0.1,0-0.1,0.1l-0.4,0.6c0,0-0.1,0.1-0.1,0.2c0,0.1,0.1,0.1,0.1,0.2c0.5,0.4,1.1,0.6,1.8,0.6
	c1.2,0,1.9-0.6,1.9-1.6C32.2,18.1,31.7,17.7,30.6,17.4z M46.1,14V13h-2C44,13,44,13,44,12.9v-0.6c0-0.1,0-0.1,0.1-0.1h1.6
	c0.1,0,0.2-0.1,0.2-0.2v-0.9H44v-0.6c0-0.1,0-0.1,0.1-0.1h2v-1c0-0.1-0.1-0.2-0.2-0.2c0,0,0,0,0,0h-3c-0.1,0-0.2,0-0.2,0.2v4.7h3.1
	C46,14.2,46.1,14.1,46.1,14C46.1,14,46.1,14,46.1,14C46.1,14,46.1,14,46.1,14z M37.4,15.5c-0.1,0-0.2,0-0.2,0.1c0,0,0,0,0,0.1v2.6
	c-0.1,1.1,0.7,2.1,1.7,2.2c0.1,0,0.3,0,0.4,0c1.1,0.1,2.1-0.7,2.3-1.8c0,0,0,0,0,0c0-0.1,0-0.3,0-0.4v-2.8h-1c-0.1,0-0.2,0-0.2,0.2
	v2.5c0,0.8-0.4,1.2-1,1.2s-1-0.4-1-1.2v-2.7L37.4,15.5z M39.6,14.1h1c0.1,0,0.2,0,0.2-0.1c0,0,0,0,0-0.1v-3.6H42
	c0.1,0,0.2,0,0.2-0.1c0,0,0,0,0,0v-1h-3.8c-0.1,0-0.2,0-0.2,0.2v0.9h1.4V14.1z M27.1,7v16.1c0,1.3-1.1,2.4-2.4,2.4H8.6
	c-1.3,0-2.4-1-2.4-2.4V7c0-1.3,1.1-2.4,2.4-2.4h16.1C26,4.6,27.1,5.7,27.1,7L27.1,7z M11.6,19l5.3-4l-5.3-4V19z M20.1,14.6
	L20.1,14.6c0.7-0.7,1.1-1.8,1.1-2.8c-0.1-2.1-1.8-3.7-3.9-3.7h-5.7v2.4l5.9,4.5l-5.9,4.6c0.5,2.4,2.2,2.3,2.2,2.3h4.4
	c2.2,0,3.3-1.7,3.5-3.9C21.7,16.7,21.1,15.4,20.1,14.6L20.1,14.6z M34.9,12.4v1.8h1c0.1,0,0.2,0,0.2-0.1c0,0,0,0,0-0.1v-1.6l1.7-2.9
	c0,0,0-0.1,0-0.1c0-0.1,0-0.1-0.1-0.1h-0.9c-0.1,0-0.3,0.1-0.3,0.2l-1,1.7l-1-1.7c0-0.1-0.2-0.2-0.3-0.2h-1c-0.1,0-0.1,0-0.1,0.1
	c0,0,0,0.1,0,0.1L34.9,12.4z M18.9,16.4c-0.3-0.2-0.7-0.3-1-0.3h-0.9l-3.1,2.5v1h4.3c0.8,0,1.4-0.6,1.5-1.4
	C19.8,17.5,19.5,16.8,18.9,16.4L18.9,16.4z M18.3,13.3c0.5-0.7,0.5-1.7-0.2-2.3c0,0,0,0-0.1-0.1c-0.3-0.3-0.7-0.4-1.1-0.4h-3.2v1
	L17,14C17.5,14,18,13.7,18.3,13.3L18.3,13.3z M47.2,17.9c0,1.5-1,2.5-2.8,2.5h-1.8v-4.7c0-0.1,0.1-0.2,0.2-0.2h1.7
	C46.3,15.5,47.3,16.4,47.2,17.9L47.2,17.9z M46,17.9c0-0.8-0.5-1.3-1.5-1.3H44c-0.1,0-0.1,0-0.1,0.1v2.4c0,0.1,0,0.1,0.1,0.1h0.4
	C45.5,19.3,46,18.8,46,17.9z M48,15.7v4.7h1.2v-4.9h-1C48.1,15.5,48,15.5,48,15.7C48,15.7,48,15.7,48,15.7L48,15.7z M48.8,11.1
	C48.1,11,48,10.9,48,10.7c0-0.3,0.2-0.4,0.6-0.4c0.4,0,0.8,0.2,1.1,0.4c0,0,0.1,0.1,0.1,0.1c0,0,0.1,0,0.1-0.1l0.4-0.6
	c0,0,0-0.1,0-0.1c0-0.1,0-0.1-0.1-0.1c-0.5-0.4-1.1-0.6-1.8-0.6c-1.1,0-1.9,0.6-1.9,1.6c0,0.9,0.5,1.3,1.5,1.5
	c0.7,0.2,0.9,0.3,0.9,0.5c0,0.2-0.2,0.4-0.7,0.4c-0.4,0-0.9-0.2-1.2-0.4c0,0-0.1-0.1-0.1-0.1c0,0-0.1,0-0.1,0.1l-0.4,0.6
	c0,0-0.1,0.1-0.1,0.2c0,0.1,0,0.1,0.1,0.2c0.5,0.4,1.1,0.6,1.8,0.6c1.2,0,1.9-0.6,1.9-1.6C50.3,11.9,49.8,11.4,48.8,11.1L48.8,11.1z
	 M55.2,17.9c0,1.4-1.1,2.6-2.5,2.7c-1.4,0-2.6-1.1-2.7-2.5c0-1.4,1.1-2.6,2.5-2.7h0.1c1.4-0.1,2.5,1,2.6,2.4c0,0,0,0,0,0V17.9
	L55.2,17.9z M54,17.9c0-0.8-0.5-1.4-1.3-1.4s-1.4,0.5-1.4,1.3v0.2c0,0.7,0.5,1.4,1.2,1.4c0,0,0,0,0,0h0.1C53.4,19.4,54,18.8,54,17.9
	L54,17.9L54,17.9z M32.8,12.6c0,1-0.7,1.5-2,1.5h-2V9.4c0-0.1,0.1-0.2,0.2-0.2h1.8c1.2,0,1.9,0.4,1.9,1.4c-0.5,0.3-0.8,0.9-0.5,1.5
	C32.3,12.3,32.6,12.5,32.8,12.6z M30,11c0,0.1,0,0.1,0.1,0.1h0.6c0.5,0,0.7-0.1,0.7-0.4s-0.2-0.4-0.7-0.4h-0.6c-0.1,0-0.1,0-0.1,0.1
	L30,11z M31.6,12.6c0-0.3-0.2-0.4-0.7-0.4H30V13c0,0.1,0,0.1,0.1,0.1h0.7C31.4,13.1,31.6,13,31.6,12.6L31.6,12.6z M32.7,15.7v0.9
	h1.4v3.8h1c0.1,0,0.2-0.1,0.2-0.2v-3.6h1.2c0.1,0,0.2-0.1,0.2-0.2v-0.9h-3.8C32.7,15.5,32.7,15.6,32.7,15.7L32.7,15.7z"/>
</svg>
