<?xml version="1.0" encoding="utf-8"?>
<!-- Generator: Adobe Illustrator 25.2.1, SVG Export Plug-In . SVG Version: 6.00 Build 0)  -->
<svg version="1.1" id="piezas" xmlns="http://www.w3.org/2000/svg" xmlns:xlink="http://www.w3.org/1999/xlink" x="0px" y="0px"
	 viewBox="0 0 117.5 30.3" style="enable-background:new 0 0 117.5 30.3;" xml:space="preserve">
<style type="text/css">
	.st0{fill:url(#Path_64_1_);}
	.st1{fill:url(#Path_65_1_);}
	.st2{fill:url(#Path_66_1_);}
	.st3{fill:url(#Path_67_1_);}
	.st4{fill:url(#Path_68_1_);}
	.st5{fill:url(#Path_69_1_);}
	.st6{fill:url(#Path_70_1_);}
	.st7{fill:url(#Path_71_1_);}
	.st8{fill:url(#Path_72_1_);}
	.st9{fill:url(#Path_73_1_);}
	.st10{fill:url(#Path_74_1_);}
	.st11{fill:url(#Path_75_1_);}
	.st12{fill:url(#Path_76_1_);}
	.st13{fill:url(#Path_77_1_);}
	.st14{fill:url(#Path_78_1_);}
	.st15{fill:url(#Path_79_1_);}
	.st16{fill:url(#Path_80_1_);}
	.st17{fill:url(#Path_81_1_);}
	.st18{fill:url(#Path_82_1_);}
	.st19{fill:url(#Path_83_1_);}
	.st20{fill:url(#Path_84_1_);}
</style>
<g id="Loyalty">
	<g id="Group_33">
		
			<linearGradient id="Path_64_1_" gradientUnits="userSpaceOnUse" x1="-1584.1282" y1="-148.4104" x2="-1584.1282" y2="-149.4954" gradientTransform="matrix(6.56 0 0 9.86 10432.1758 1491.6155)">
			<stop  offset="0" style="stop-color:#EFE160"/>
			<stop  offset="1" style="stop-color:#E49541"/>
		</linearGradient>
		<path id="Path_64" class="st0" d="M37.7,25.5c0,0.2-0.1,0.3-0.3,0.3H37c-0.2,0-0.3-0.1-0.3-0.3V15.4c0-0.2,0.1-0.3,0.3-0.3h2.6
			c2.8,0,4.2,1.2,4.2,3.4S42.3,22,39.5,22h-1.6c-0.1,0-0.2,0-0.2,0.2V25.5z M37.7,20.8c0,0.1,0,0.2,0.2,0.2h1.7c2,0,3.2-0.8,3.2-2.5
			s-1.1-2.4-3.2-2.4h-1.7c-0.1,0-0.2,0-0.2,0.2V20.8z"/>
		
			<linearGradient id="Path_65_1_" gradientUnits="userSpaceOnUse" x1="-1603.866" y1="-148.4104" x2="-1603.866" y2="-149.4954" gradientTransform="matrix(7.2 0 0 9.86 11597.668 1491.6155)">
			<stop  offset="0" style="stop-color:#EFE160"/>
			<stop  offset="1" style="stop-color:#E49541"/>
		</linearGradient>
		<path id="Path_65" class="st1" d="M46.9,25.5c0,0.2-0.1,0.3-0.3,0.3h-0.4c-0.2,0-0.3-0.1-0.3-0.3V15.4c0-0.2,0.1-0.3,0.3-0.3h2.6
			c2.8,0,4.2,1.1,4.2,3.2c0.1,1.4-0.8,2.6-2.2,2.9l2.8,4.2c0.1,0.1,0.1,0.2,0.1,0.3c0,0.1-0.1,0.2-0.3,0.2h-0.4
			c-0.3,0-0.4-0.1-0.6-0.4L50,21.7c-0.1-0.1-0.2-0.2-0.4-0.2h-2.5c-0.1,0-0.2,0-0.2,0.2L46.9,25.5z M46.9,20.4c0,0.1,0,0.2,0.2,0.2
			h1.9c2,0,3-0.7,3-2.2s-1.1-2.2-3.2-2.2H47c-0.1,0-0.2,0-0.2,0.2L46.9,20.4z"/>
		
			<linearGradient id="Path_66_1_" gradientUnits="userSpaceOnUse" x1="-1664.2069" y1="-149.7028" x2="-1664.2069" y2="-150.7878" gradientTransform="matrix(10 0 0 10.14 16702.0293 1545.3446)">
			<stop  offset="0" style="stop-color:#EFE160"/>
			<stop  offset="1" style="stop-color:#E49541"/>
		</linearGradient>
		<path id="Path_66" class="st2" d="M65.4,20.4c0.1,3-2.3,5.5-5.3,5.5h-0.2c-2.9,0.1-5.4-2.3-5.4-5.2c0,0,0,0,0-0.1v-0.2
			c-0.1-3,2.3-5.5,5.2-5.6c0,0,0.1,0,0.1,0H60c2.9-0.1,5.4,2.3,5.4,5.2c0,0,0,0,0,0.1L65.4,20.4z M64.3,20.4
			c-0.1-2.4-2.1-4.3-4.5-4.2c-2.4,0.1-4.3,2.1-4.2,4.5c0.1,2.3,2,4.1,4.3,4.2C62.4,25,64.3,22.9,64.3,20.4
			C64.3,20.5,64.3,20.5,64.3,20.4L64.3,20.4L64.3,20.4z"/>
		
			<linearGradient id="Path_67_1_" gradientUnits="userSpaceOnUse" x1="-1640.7394" y1="-149.6937" x2="-1640.7394" y2="-150.7788" gradientTransform="matrix(8.69 0 0 10.14 14329.6621 1546.4247)">
			<stop  offset="0" style="stop-color:#EFE160"/>
			<stop  offset="1" style="stop-color:#E49541"/>
		</linearGradient>
		<path id="Path_67" class="st3" d="M72.2,26c-2.9,0-5.3-2.3-5.3-5.3c0,0,0,0,0,0v-0.2c-0.1-3,2.2-5.5,5.2-5.6h0.3
			c1.3,0,2.7,0.4,3.7,1.2c0.1,0.1,0.2,0.1,0.2,0.2c0,0.1,0,0.2-0.1,0.2L76,16.9c0,0.1-0.1,0.1-0.2,0.1c-0.1,0-0.2,0-0.2-0.1
			c-0.9-0.7-2-1.1-3.1-1.1c-2.5,0-4.5,2-4.6,4.5s2,4.5,4.5,4.6c1,0,1.9-0.2,2.8-0.5c0.2-0.1,0.2-0.1,0.2-0.3v-2.9
			c0-0.2,0.1-0.3,0.3-0.3H76c0.2,0,0.3,0.1,0.3,0.3v3.5c0,0.2-0.1,0.3-0.2,0.4C74.9,25.7,73.6,26,72.2,26z"/>
		
			<linearGradient id="Path_68_1_" gradientUnits="userSpaceOnUse" x1="-1604.0963" y1="-148.4104" x2="-1604.0963" y2="-149.4954" gradientTransform="matrix(7.19 0 0 9.86 11616.2539 1491.6155)">
			<stop  offset="0" style="stop-color:#EFE160"/>
			<stop  offset="1" style="stop-color:#E49541"/>
		</linearGradient>
		<path id="Path_68" class="st4" d="M79.9,25.5c0,0.2-0.1,0.3-0.3,0.3h-0.4c-0.2,0-0.3-0.1-0.3-0.3V15.4c0-0.2,0.1-0.3,0.3-0.3h2.6
			c2.8,0,4.2,1.1,4.2,3.2c0.1,1.4-0.8,2.6-2.2,2.9l2.8,4.2c0.1,0.1,0.1,0.2,0.1,0.3c0,0.1-0.1,0.2-0.3,0.2H86
			c-0.3,0-0.4-0.1-0.6-0.4L83,21.7c-0.1-0.1-0.2-0.2-0.4-0.2h-2.5c-0.1,0-0.2,0-0.2,0.2L79.9,25.5z M79.9,20.4c0,0.1,0,0.2,0.2,0.2
			h1.9c2,0,3-0.7,3-2.2s-1.1-2.2-3.2-2.2H80c-0.1,0-0.2,0-0.2,0.2L79.9,20.4z"/>
		
			<linearGradient id="Path_69_1_" gradientUnits="userSpaceOnUse" x1="-1654.022" y1="-149.2317" x2="-1654.022" y2="-150.3168" gradientTransform="matrix(9.39 0 0 10.03 15623.0801 1520.9912)">
			<stop  offset="0" style="stop-color:#EFE160"/>
			<stop  offset="1" style="stop-color:#E49541"/>
		</linearGradient>
		<path id="Path_69" class="st5" d="M89.6,22c-0.1,0-0.3,0.1-0.3,0.2l-1.5,3.2c-0.2,0.4-0.3,0.4-0.6,0.4H87c-0.2,0-0.3-0.1-0.3-0.2
			c0-0.1,0-0.2,0.1-0.2l4.5-9.7c0.3-0.6,0.4-0.7,0.5-0.7c0.2,0,0.2,0.2,0.5,0.7l4.5,9.7c0,0.1,0.1,0.2,0.1,0.2
			c0,0.1-0.1,0.2-0.3,0.2h-0.3c-0.3,0-0.4-0.1-0.6-0.4l-1.4-3.2c0-0.1-0.1-0.2-0.3-0.2H89.6z M93.7,20.9l-1.9-4.1L90,20.9
			c0,0,0,0.1,0,0.1c0,0.1,0,0.1,0.2,0.1h3.5c0.1,0,0.2,0,0.2-0.1C93.8,21,93.8,20.9,93.7,20.9L93.7,20.9z"/>
		
			<linearGradient id="Path_70_1_" gradientUnits="userSpaceOnUse" x1="-1649.8853" y1="-149.0634" x2="-1649.8853" y2="-150.1496" gradientTransform="matrix(9.18 0 0 10 15249.3213 1518.8949)">
			<stop  offset="0" style="stop-color:#EFE160"/>
			<stop  offset="1" style="stop-color:#E49541"/>
		</linearGradient>
		<path id="Path_70" class="st6" d="M99.1,25.8h-0.4c-0.2,0-0.3-0.1-0.3-0.3V15.4c0-0.3,0.1-0.5,0.3-0.5c0.2,0,0.3,0.1,0.5,0.4
			l4.2,5.3l4.1-5.3c0.3-0.3,0.4-0.4,0.6-0.4s0.3,0.2,0.3,0.5v10.1c0,0.2-0.1,0.3-0.3,0.3h-0.4c-0.3,0-0.3,0-0.3-0.3v-8.3l-3.5,4.3
			c-0.3,0.3-0.4,0.4-0.5,0.4s-0.3-0.1-0.5-0.4l-3.5-4.3v8.3C99.4,25.8,99.3,25.8,99.1,25.8z"/>
		
			<linearGradient id="Path_71_1_" gradientUnits="userSpaceOnUse" x1="-1592.1115" y1="-149.8021" x2="-1592.1115" y2="-150.8872" gradientTransform="matrix(6.83 0 0 10.16 10987.9004 1548.3391)">
			<stop  offset="0" style="stop-color:#EFE160"/>
			<stop  offset="1" style="stop-color:#E49541"/>
		</linearGradient>
		<path id="Path_71" class="st7" d="M117.4,16.4c0,0.1,0,0.1-0.1,0.2l-0.3,0.3c-0.1,0.1-0.1,0.2-0.2,0.2c-0.1,0-0.2,0-0.2-0.1
			c-0.8-0.6-1.7-1-2.7-1c-1.3,0-2.3,0.7-2.3,1.9c0,1.2,0.8,1.6,2.6,2.1c2.3,0.6,3.3,1.3,3.3,3c0,1.8-1.6,3-3.8,3
			c-1.3,0-2.5-0.5-3.5-1.3c-0.1-0.1-0.2-0.1-0.2-0.2c0-0.1,0-0.2,0.1-0.2l0.3-0.3c0.1-0.1,0.1-0.1,0.2-0.1c0.1,0,0.1,0.1,0.2,0.1
			c0.8,0.7,1.8,1.1,2.9,1.2c1.6,0,2.7-0.8,2.7-2c0-1.2-0.6-1.6-2.6-2.1c-2.2-0.6-3.3-1.2-3.3-3c0-1.7,1.4-3.1,3.1-3c0,0,0,0,0,0h0.2
			c1.2,0,2.4,0.4,3.3,1.2C117.4,16.2,117.4,16.3,117.4,16.4z"/>
	</g>
	<g id="Group_34">
		
			<linearGradient id="Path_72_1_" gradientUnits="userSpaceOnUse" x1="-1586.8264" y1="-149.6254" x2="-1586.8264" y2="-148.5401" gradientTransform="matrix(6.65 0 0 9.86 10592.7344 1476.5452)">
			<stop  offset="0" style="stop-color:#FFFFFF"/>
			<stop  offset="0.15" style="stop-color:#EAEAEA"/>
			<stop  offset="0.38" style="stop-color:#D7D8D9"/>
			<stop  offset="0.63" style="stop-color:#B9BABC"/>
			<stop  offset="0.92" style="stop-color:#8F9194"/>
			<stop  offset="1" style="stop-color:#828487"/>
		</linearGradient>
		<path id="Path_72" class="st8" d="M43.6,8.2c0.3,0,0.4,0.1,0.4,0.4v1.6c0,0.3-0.1,0.4-0.4,0.4h-6.4c-0.2,0-0.4-0.1-0.4-0.3v-10
			c0-0.3,0.1-0.4,0.4-0.4H39c0.3,0,0.4,0.1,0.4,0.4V8c0,0.2,0,0.2,0.2,0.2L43.6,8.2z"/>
		
			<linearGradient id="Path_73_1_" gradientUnits="userSpaceOnUse" x1="-1672.2889" y1="-152.7076" x2="-1672.2889" y2="-151.6219" gradientTransform="matrix(10.55 0 0 10.56 17693.3145 1612.6036)">
			<stop  offset="0" style="stop-color:#FFFFFF"/>
			<stop  offset="0.15" style="stop-color:#EAEAEA"/>
			<stop  offset="0.38" style="stop-color:#D7D8D9"/>
			<stop  offset="0.63" style="stop-color:#B9BABC"/>
			<stop  offset="0.92" style="stop-color:#8F9194"/>
			<stop  offset="1" style="stop-color:#828487"/>
		</linearGradient>
		<path id="Path_73" class="st9" d="M56.4,5.3c0.1,3.2-2.4,5.8-5.6,5.9c-3.2,0.1-5.8-2.4-5.9-5.6c-0.1-3.1,2.4-5.7,5.5-5.9h0.2
			c3-0.2,5.6,2.1,5.8,5.1c0,0.1,0,0.1,0,0.2V5.3z M53.6,5.3c0.1-1.6-1.2-3-2.8-3.1c-1.6-0.1-3,1.2-3.1,2.8v0.3c-0.1,1.6,1,3,2.6,3.1
			c0,0,0,0,0,0h0.3c1.6,0,3-1.3,3-2.9L53.6,5.3L53.6,5.3z"/>
		
			<linearGradient id="Path_74_1_" gradientUnits="userSpaceOnUse" x1="-1657.7953" y1="-149.7007" x2="-1657.7953" y2="-148.6158" gradientTransform="matrix(9.62 0 0 9.87 16009.8076 1476.0372)">
			<stop  offset="0" style="stop-color:#FFFFFF"/>
			<stop  offset="0.15" style="stop-color:#EAEAEA"/>
			<stop  offset="0.38" style="stop-color:#D7D8D9"/>
			<stop  offset="0.63" style="stop-color:#B9BABC"/>
			<stop  offset="0.92" style="stop-color:#8F9194"/>
			<stop  offset="1" style="stop-color:#828487"/>
		</linearGradient>
		<path id="Path_74" class="st10" d="M64.7,0h2C66.9,0,67,0,67,0.2c0,0.1,0,0.2-0.1,0.2l-3.8,6.3v3.6c0,0.3-0.1,0.4-0.4,0.4h-1.9
			c-0.2,0-0.4-0.1-0.4-0.3V6.8l-3.8-6.4c-0.1-0.1-0.1-0.2-0.1-0.2C56.6,0,56.7,0,56.9,0H59c0.3,0,0.6,0.1,0.7,0.4l2.1,3.7L64,0.4
			C64.1,0.1,64.4-0.1,64.7,0z"/>
		
			<linearGradient id="Path_75_1_" gradientUnits="userSpaceOnUse" x1="-1670.3903" y1="-150.5987" x2="-1670.3903" y2="-149.5137" gradientTransform="matrix(10.45 0 0 10.07 17527.1602 1516.3199)">
			<stop  offset="0" style="stop-color:#FFFFFF"/>
			<stop  offset="0.15" style="stop-color:#EAEAEA"/>
			<stop  offset="0.38" style="stop-color:#D7D8D9"/>
			<stop  offset="0.63" style="stop-color:#B9BABC"/>
			<stop  offset="0.92" style="stop-color:#8F9194"/>
			<stop  offset="1" style="stop-color:#828487"/>
		</linearGradient>
		<path id="Path_75" class="st11" d="M69.6,8.8c-0.2,0-0.2,0-0.3,0.2l-0.6,1.3c-0.1,0.3-0.3,0.4-0.6,0.4h-1.9
			c-0.2,0-0.3-0.1-0.3-0.2c0-0.1,0-0.2,0.1-0.3l4.8-9.6c0.3-0.6,0.5-0.8,0.8-0.8c0.3,0,0.5,0.2,0.8,0.8l4.8,9.6
			c0,0.1,0.1,0.2,0.1,0.3c0,0.2-0.1,0.2-0.3,0.2h-2c-0.4,0-0.5-0.1-0.7-0.4L73.8,9c-0.1-0.2-0.1-0.2-0.3-0.2H69.6z M72.5,6.4
			l-0.9-2.1l-1,2.1c0,0,0,0.1,0,0.1c0,0.1,0,0.1,0.2,0.1h1.7c0.1,0,0.2,0,0.2-0.1c0,0,0-0.1,0-0.1L72.5,6.4z"/>
		
			<linearGradient id="Path_76_1_" gradientUnits="userSpaceOnUse" x1="-1586.1931" y1="-149.6254" x2="-1586.1931" y2="-148.5401" gradientTransform="matrix(6.65 0 0 9.86 10630.1143 1476.5452)">
			<stop  offset="0" style="stop-color:#FFFFFF"/>
			<stop  offset="0.15" style="stop-color:#EAEAEA"/>
			<stop  offset="0.38" style="stop-color:#D7D8D9"/>
			<stop  offset="0.63" style="stop-color:#B9BABC"/>
			<stop  offset="0.92" style="stop-color:#8F9194"/>
			<stop  offset="1" style="stop-color:#828487"/>
		</linearGradient>
		<path id="Path_76" class="st12" d="M85.1,8.2c0.3,0,0.4,0.1,0.4,0.4v1.6c0,0.3-0.1,0.4-0.4,0.4h-6.4c-0.2,0-0.4-0.1-0.4-0.3
			c0,0,0-0.1,0-0.1V0.4c0-0.3,0.1-0.4,0.4-0.4h1.8C80.9,0,81,0.1,81,0.4V8c0,0.2,0,0.2,0.2,0.2L85.1,8.2z"/>
		
			<linearGradient id="Path_77_1_" gradientUnits="userSpaceOnUse" x1="-1626.4674" y1="-149.6319" x2="-1626.4674" y2="-148.5469" gradientTransform="matrix(8.06 0 0 9.86 13199.085 1475.7854)">
			<stop  offset="0" style="stop-color:#FFFFFF"/>
			<stop  offset="0.15" style="stop-color:#EAEAEA"/>
			<stop  offset="0.38" style="stop-color:#D7D8D9"/>
			<stop  offset="0.63" style="stop-color:#B9BABC"/>
			<stop  offset="0.92" style="stop-color:#8F9194"/>
			<stop  offset="1" style="stop-color:#828487"/>
		</linearGradient>
		<path id="Path_77" class="st13" d="M91.3,2.4c-0.2,0-0.2,0.1-0.2,0.2v7.6c0,0.3-0.1,0.4-0.4,0.4h-1.9c-0.2,0-0.4-0.1-0.4-0.3V2.7
			c0-0.2,0-0.2-0.2-0.2h-2.4c-0.2,0-0.4-0.1-0.4-0.3c0,0,0,0,0,0V0.4c0-0.3,0.1-0.4,0.4-0.4h7.9c0.3,0,0.4,0.1,0.4,0.4V2
			c0,0.3-0.1,0.4-0.4,0.4H91.3z"/>
		
			<linearGradient id="Path_78_1_" gradientUnits="userSpaceOnUse" x1="-1657.4772" y1="-149.7007" x2="-1657.4772" y2="-148.6158" gradientTransform="matrix(9.62 0 0 9.87 16045.0381 1476.0372)">
			<stop  offset="0" style="stop-color:#FFFFFF"/>
			<stop  offset="0.15" style="stop-color:#EAEAEA"/>
			<stop  offset="0.38" style="stop-color:#D7D8D9"/>
			<stop  offset="0.63" style="stop-color:#B9BABC"/>
			<stop  offset="0.92" style="stop-color:#8F9194"/>
			<stop  offset="1" style="stop-color:#828487"/>
		</linearGradient>
		<path id="Path_78" class="st14" d="M103,0h2c0.2,0,0.3,0.1,0.3,0.2c0,0.1,0,0.2-0.1,0.2l-3.8,6.3v3.6c0,0.3-0.1,0.4-0.4,0.4h-1.8
			c-0.2,0-0.4-0.1-0.4-0.3V6.8L95,0.4c-0.1-0.1-0.1-0.2-0.1-0.2C94.9,0,95,0,95.2,0h2.2c0.3,0,0.6,0.1,0.7,0.4l2.1,3.7l2.2-3.7
			C102.4,0.1,102.7-0.1,103,0z"/>
	</g>
	<g id="Group_35">
		
			<linearGradient id="Path_79_1_" gradientUnits="userSpaceOnUse" x1="-1736.8359" y1="-110.9063" x2="-1735.751" y2="-110.9063" gradientTransform="matrix(12.06 0 0 5.42 20401.4766 604.0803)">
			<stop  offset="0" style="stop-color:#EFE160"/>
			<stop  offset="1" style="stop-color:#E49541"/>
		</linearGradient>
		<path id="Path_79" class="st15" d="M19.9,0h-9L8.9,5.9H22L19.9,0z"/>
		
			<linearGradient id="Path_80_1_" gradientUnits="userSpaceOnUse" x1="-1695.4536" y1="-110.9063" x2="-1694.3687" y2="-110.9063" gradientTransform="matrix(7.98 0 0 5.42 12978.8906 604.0803)">
			<stop  offset="0" style="stop-color:#EFE160"/>
			<stop  offset="1" style="stop-color:#E49541"/>
		</linearGradient>
		<path id="Path_80" class="st16" d="M8.7,0H4.5L0,5.9h6.6L8.7,0z"/>
		
			<linearGradient id="Path_81_1_" gradientUnits="userSpaceOnUse" x1="-1730.4491" y1="-163.2495" x2="-1729.364" y2="-163.2495" gradientTransform="matrix(11.17 0 0 14.25 18774.4082 2342.1687)">
			<stop  offset="0" style="stop-color:#EFE160"/>
			<stop  offset="1" style="stop-color:#E49541"/>
		</linearGradient>
		<path id="Path_81" class="st17" d="M0,8.1l12.2,15.5L6.6,8.1H0z"/>
		
			<linearGradient id="Path_82_1_" gradientUnits="userSpaceOnUse" x1="-1730.3105" y1="-163.3566" x2="-1729.2255" y2="-163.3566" gradientTransform="matrix(11.17 0 0 14.25 18792.6074 2343.6892)">
			<stop  offset="0" style="stop-color:#EFE160"/>
			<stop  offset="1" style="stop-color:#E49541"/>
		</linearGradient>
		<path id="Path_82" class="st18" d="M18.8,23.6L30.9,8.1h-6.6L18.8,23.6z"/>
		
			<linearGradient id="Path_83_1_" gradientUnits="userSpaceOnUse" x1="-1695.2238" y1="-110.9063" x2="-1694.1388" y2="-110.9063" gradientTransform="matrix(7.98 0 0 5.42 12999.4404 604.0803)">
			<stop  offset="0" style="stop-color:#EFE160"/>
			<stop  offset="1" style="stop-color:#E49541"/>
		</linearGradient>
		<path id="Path_83" class="st19" d="M30.9,5.9L26.4,0h-4.2l2.1,5.9L30.9,5.9z"/>
		
			<linearGradient id="Path_84_1_" gradientUnits="userSpaceOnUse" x1="-1736.7233" y1="-168.1706" x2="-1735.6382" y2="-168.1706" gradientTransform="matrix(12.04 0 0 16.8 20361.4785 2842.4922)">
			<stop  offset="0" style="stop-color:#EFE160"/>
			<stop  offset="1" style="stop-color:#E49541"/>
		</linearGradient>
		<path id="Path_84" class="st20" d="M8.9,8.1l6.5,18.2L22,8.1L8.9,8.1z"/>
	</g>
</g>
</svg>
