<?xml version="1.0" encoding="utf-8"?>
<!-- Generator: Adobe Illustrator 25.2.1, SVG Export Plug-In . SVG Version: 6.00 Build 0)  -->
<svg version="1.1" id="piezas" xmlns="http://www.w3.org/2000/svg" xmlns:xlink="http://www.w3.org/1999/xlink" x="0px" y="0px"
	 viewBox="0 0 135.2 30.3" style="enable-background:new 0 0 135.2 30.3;" xml:space="preserve">
<style type="text/css">
	.st0{fill:url(#Path_64_1_);}
	.st1{fill:url(#Path_65_1_);}
	.st2{fill:url(#Path_66_1_);}
	.st3{fill:url(#Path_67_1_);}
	.st4{fill:url(#Path_68_1_);}
	.st5{fill:url(#Path_69_1_);}
	.st6{fill:url(#Path_70_1_);}
	.st7{fill:url(#Path_71_1_);}
	.st8{fill:url(#Path_72_1_);}
	.st9{fill:url(#Path_73_1_);}
	.st10{fill:url(#Path_74_1_);}
	.st11{fill:url(#Path_75_1_);}
	.st12{fill:url(#Path_76_1_);}
	.st13{fill:url(#Path_77_1_);}
	.st14{fill:url(#Path_78_1_);}
	.st15{fill:url(#Path_79_1_);}
	.st16{fill:url(#Path_80_1_);}
	.st17{fill:url(#Path_81_1_);}
	.st18{fill:url(#Path_82_1_);}
	.st19{fill:url(#Path_83_1_);}
	.st20{fill:url(#Path_84_1_);}
</style>
<g id="Loyalty">
	<g id="Group_33">
		
			<linearGradient id="Path_64_1_" gradientUnits="userSpaceOnUse" x1="-1707.8337" y1="569.9749" x2="-1707.8337" y2="571.2034" gradientTransform="matrix(6.56 0 0 -9.86 11249.4961 5652.3755)">
			<stop  offset="0" style="stop-color:#EFE160"/>
			<stop  offset="1" style="stop-color:#E49541"/>
		</linearGradient>
		<path id="Path_64" class="st0" d="M43.2,29.3c0,0.2-0.1,0.3-0.3,0.3h-0.5c-0.2,0-0.3-0.1-0.3-0.3V17.8c0-0.2,0.1-0.3,0.3-0.3h3
			c3.2,0,4.8,1.4,4.8,3.8s-1.7,4-4.9,4h-1.8c-0.1,0-0.2,0-0.2,0.2V29.3z M43.2,23.9c0,0.1,0,0.2,0.2,0.2h1.9c2.3,0,3.7-0.9,3.7-2.8
			s-1.3-2.7-3.7-2.7h-1.9c-0.1,0-0.2,0-0.2,0.2V23.9z"/>
		
			<linearGradient id="Path_65_1_" gradientUnits="userSpaceOnUse" x1="-1729.4476" y1="569.9749" x2="-1729.4476" y2="571.2031" gradientTransform="matrix(7.2 0 0 -9.86 12509.0684 5652.3755)">
			<stop  offset="0" style="stop-color:#EFE160"/>
			<stop  offset="1" style="stop-color:#E49541"/>
		</linearGradient>
		<path id="Path_65" class="st1" d="M53.7,29.3c0,0.2-0.1,0.3-0.3,0.3h-0.5c-0.2,0-0.3-0.1-0.3-0.3V17.8c0-0.2,0.1-0.3,0.3-0.3h3
			c3.2,0,4.8,1.2,4.8,3.6c0.1,1.6-0.9,2.9-2.5,3.3l3.2,4.8c0.1,0.1,0.1,0.2,0.1,0.3c0,0.1-0.1,0.2-0.3,0.2h-0.5
			c-0.3,0-0.5-0.1-0.7-0.5L57.3,25c-0.1-0.1-0.2-0.2-0.5-0.2H54c-0.1,0-0.2,0-0.2,0.2L53.7,29.3z M53.7,23.5c0,0.1,0,0.2,0.2,0.2
			h2.2c2.3,0,3.4-0.8,3.4-2.5s-1.3-2.5-3.7-2.5h-2.1c-0.1,0-0.2,0-0.2,0.2L53.7,23.5z"/>
		
			<linearGradient id="Path_66_1_" gradientUnits="userSpaceOnUse" x1="-1795.6357" y1="572.5064" x2="-1795.6357" y2="573.7347" gradientTransform="matrix(10 0 0 -10.14 18025.0293 5836.585)">
			<stop  offset="0" style="stop-color:#EFE160"/>
			<stop  offset="1" style="stop-color:#E49541"/>
		</linearGradient>
		<path id="Path_66" class="st2" d="M74.9,23.5c0.1,3.4-2.6,6.2-6.1,6.2h-0.2c-3.3,0.1-6.2-2.6-6.2-5.9c0,0,0,0,0-0.1v-0.2
			c-0.1-3.4,2.6-6.2,6-6.3h0.1h0.2c3.3-0.1,6.2,2.6,6.2,5.9c0,0,0,0,0,0.1V23.5z M73.7,23.5c-0.1-2.7-2.4-4.9-5.2-4.8
			c-2.7,0.1-4.9,2.4-4.8,5.1c0.1,2.6,2.3,4.6,4.9,4.8C71.5,28.7,73.7,26.3,73.7,23.5C73.7,23.6,73.7,23.6,73.7,23.5L73.7,23.5
			L73.7,23.5z"/>
		
			<linearGradient id="Path_67_1_" gradientUnits="userSpaceOnUse" x1="-1769.6292" y1="572.482" x2="-1769.6292" y2="573.7104" gradientTransform="matrix(8.69 0 0 -10.14 15460.0918 5837.665)">
			<stop  offset="0" style="stop-color:#EFE160"/>
			<stop  offset="1" style="stop-color:#E49541"/>
		</linearGradient>
		<path id="Path_67" class="st3" d="M82.7,29.8c-3.3,0-6.1-2.6-6.1-6l0,0v-0.2c-0.1-3.4,2.5-6.2,6-6.3h0.3c1.5,0,3.1,0.5,4.2,1.4
			c0.1,0.1,0.2,0.1,0.2,0.2s0,0.2-0.1,0.2l-0.2,0.5c0,0.1-0.1,0.1-0.2,0.1s-0.2,0-0.2-0.1c-1-0.8-2.3-1.2-3.6-1.2
			c-2.9,0-5.2,2.3-5.3,5.1c-0.1,2.8,2.3,5.1,5.2,5.2c1.1,0,2.2-0.2,3.2-0.6c0.2-0.1,0.2-0.1,0.2-0.3v-3.3c0-0.2,0.1-0.3,0.3-0.3h0.3
			c0.2,0,0.3,0.1,0.3,0.3v4c0,0.2-0.1,0.3-0.2,0.5C85.8,29.5,84.3,29.8,82.7,29.8z"/>
		
			<linearGradient id="Path_68_1_" gradientUnits="userSpaceOnUse" x1="-1728.976" y1="569.9749" x2="-1728.976" y2="571.2031" gradientTransform="matrix(7.19 0 0 -9.86 12526.1836 5652.3755)">
			<stop  offset="0" style="stop-color:#EFE160"/>
			<stop  offset="1" style="stop-color:#E49541"/>
		</linearGradient>
		<path id="Path_68" class="st4" d="M91.5,29.3c0,0.2-0.1,0.3-0.3,0.3h-0.5c-0.2,0-0.3-0.1-0.3-0.3V17.8c0-0.2,0.1-0.3,0.3-0.3h3
			c3.2,0,4.8,1.2,4.8,3.6c0.1,1.6-0.9,2.9-2.5,3.3l3.2,4.8c0.1,0.1,0.1,0.2,0.1,0.3c0,0.1-0.1,0.2-0.3,0.2h-0.5
			c-0.3,0-0.5-0.1-0.7-0.5L95.1,25c-0.1-0.1-0.2-0.2-0.5-0.2h-2.9c-0.1,0-0.2,0-0.2,0.2V29.3z M91.5,23.5c0,0.1,0,0.2,0.2,0.2h2.2
			c2.3,0,3.4-0.8,3.4-2.5s-1.3-2.5-3.7-2.5h-2.1c-0.1,0-0.2,0-0.2,0.2L91.5,23.5z"/>
		
			<linearGradient id="Path_69_1_" gradientUnits="userSpaceOnUse" x1="-1783.946" y1="571.6031" x2="-1783.946" y2="572.8315" gradientTransform="matrix(9.39 0 0 -10.03 16856.4102 5760.9712)">
			<stop  offset="0" style="stop-color:#EFE160"/>
			<stop  offset="1" style="stop-color:#E49541"/>
		</linearGradient>
		<path id="Path_69" class="st5" d="M102.6,25.3c-0.1,0-0.3,0.1-0.3,0.2l-1.7,3.6c-0.2,0.5-0.3,0.5-0.7,0.5h-0.2
			c-0.2,0-0.3-0.1-0.3-0.2c0-0.1,0-0.2,0.1-0.2l5.2-11c0.3-0.7,0.5-0.8,0.6-0.8c0.2,0,0.2,0.2,0.6,0.8l5.2,11c0,0.1,0.1,0.2,0.1,0.2
			c0,0.1-0.1,0.2-0.3,0.2h-0.3c-0.3,0-0.5-0.1-0.7-0.5l-1.6-3.6c0-0.1-0.1-0.2-0.3-0.2H102.6z M107.3,24.1l-2.2-4.6l-2.1,4.6v0.1
			c0,0.1,0,0.1,0.2,0.1h4c0.1,0,0.2,0,0.2-0.1C107.4,24.2,107.4,24.1,107.3,24.1L107.3,24.1z"/>
		
			<linearGradient id="Path_70_1_" gradientUnits="userSpaceOnUse" x1="-1779.2306" y1="571.2503" x2="-1779.2306" y2="572.48" gradientTransform="matrix(9.18 0 0 -10 16451.7812 5744.895)">
			<stop  offset="0" style="stop-color:#EFE160"/>
			<stop  offset="1" style="stop-color:#E49541"/>
		</linearGradient>
		<path id="Path_70" class="st6" d="M113.5,29.6h-0.5c-0.2,0-0.3-0.1-0.3-0.3V17.8c0-0.3,0.1-0.6,0.3-0.6c0.2,0,0.3,0.1,0.6,0.5
			l4.8,6l4.7-6c0.3-0.3,0.5-0.5,0.7-0.5s0.3,0.2,0.3,0.6v11.4c0,0.2-0.1,0.3-0.3,0.3h-0.5c-0.3,0-0.3,0-0.3-0.3v-9.4l-4,4.9
			c-0.3,0.3-0.5,0.5-0.6,0.5s-0.3-0.1-0.6-0.5l-4-4.9v9.4C113.9,29.6,113.7,29.6,113.5,29.6z"/>
		
			<linearGradient id="Path_71_1_" gradientUnits="userSpaceOnUse" x1="-1715.1699" y1="572.7038" x2="-1715.1699" y2="573.9323" gradientTransform="matrix(6.83 0 0 -10.16 11844.9102 5848.8989)">
			<stop  offset="0" style="stop-color:#EFE160"/>
			<stop  offset="1" style="stop-color:#E49541"/>
		</linearGradient>
		<path id="Path_71" class="st7" d="M134.5,19c0,0.1,0,0.1-0.1,0.2l-0.3,0.3c-0.1,0.1-0.1,0.2-0.2,0.2s-0.2,0-0.2-0.1
			c-0.9-0.7-1.9-1.1-3.1-1.1c-1.5,0-2.6,0.8-2.6,2.2s0.9,1.8,3,2.4c2.6,0.7,3.8,1.5,3.8,3.4c0,2-1.8,3.4-4.4,3.4
			c-1.5,0-2.9-0.6-4-1.5c-0.1-0.1-0.2-0.1-0.2-0.2s0-0.2,0.1-0.2l0.3-0.3c0.1-0.1,0.1-0.1,0.2-0.1s0.1,0.1,0.2,0.1
			c0.9,0.8,2.1,1.2,3.3,1.4c1.8,0,3.1-0.9,3.1-2.3c0-1.4-0.7-1.8-3-2.4c-2.5-0.7-3.8-1.4-3.8-3.4c0-1.9,1.6-3.5,3.6-3.4l0,0h0.2
			c1.4,0,2.7,0.5,3.8,1.4C134.5,18.7,134.5,18.9,134.5,19z"/>
	</g>
	<g id="Group_34">
		
			<linearGradient id="Path_72_1_" gradientUnits="userSpaceOnUse" x1="-1710.828" y1="571.5521" x2="-1710.828" y2="570.3236" gradientTransform="matrix(6.65 0 0 -9.86 11423.2842 5637.3052)">
			<stop  offset="0" style="stop-color:#FFFFFF"/>
			<stop  offset="0.15" style="stop-color:#EAEAEA"/>
			<stop  offset="0.38" style="stop-color:#D7D8D9"/>
			<stop  offset="0.63" style="stop-color:#B9BABC"/>
			<stop  offset="0.92" style="stop-color:#8F9194"/>
			<stop  offset="1" style="stop-color:#828487"/>
		</linearGradient>
		<path id="Path_72" class="st8" d="M49.9,9.7c0.3,0,0.5,0.1,0.5,0.5v1.8c0,0.3-0.1,0.5-0.5,0.5h-7.3c-0.2,0-0.5-0.1-0.5-0.3V0.7
			c0-0.3,0.1-0.5,0.5-0.5h2.1c0.3,0,0.5,0.1,0.5,0.5v8.7c0,0.2,0,0.2,0.2,0.2H49.9z"/>
		
			<linearGradient id="Path_73_1_" gradientUnits="userSpaceOnUse" x1="-1804.6583" y1="577.5712" x2="-1804.6583" y2="576.3422" gradientTransform="matrix(10.55 0 0 -10.56 19097.1641 6099.564)">
			<stop  offset="0" style="stop-color:#FFFFFF"/>
			<stop  offset="0.15" style="stop-color:#EAEAEA"/>
			<stop  offset="0.38" style="stop-color:#D7D8D9"/>
			<stop  offset="0.63" style="stop-color:#B9BABC"/>
			<stop  offset="0.92" style="stop-color:#8F9194"/>
			<stop  offset="1" style="stop-color:#828487"/>
		</linearGradient>
		<path id="Path_73" class="st9" d="M64.6,6.4c0.1,3.6-2.7,6.6-6.4,6.7c-3.7,0.1-6.6-2.7-6.8-6.3c-0.1-3.5,2.7-6.5,6.3-6.7H58
			c3.4-0.2,6.4,2.4,6.6,5.8c0,0.1,0,0.1,0,0.2V6.4z M61.4,6.4C61.5,4.6,60,3,58.2,2.9c-1.8-0.1-3.4,1.4-3.6,3.2v0.3
			c-0.1,1.8,1.1,3.4,3,3.5l0,0H58c1.8,0,3.4-1.5,3.4-3.3V6.4L61.4,6.4z"/>
		
			<linearGradient id="Path_74_1_" gradientUnits="userSpaceOnUse" x1="-1788.5876" y1="571.7089" x2="-1788.5876" y2="570.4807" gradientTransform="matrix(9.62 0 0 -9.87 17276.9473 5641.457)">
			<stop  offset="0" style="stop-color:#FFFFFF"/>
			<stop  offset="0.15" style="stop-color:#EAEAEA"/>
			<stop  offset="0.38" style="stop-color:#D7D8D9"/>
			<stop  offset="0.63" style="stop-color:#B9BABC"/>
			<stop  offset="0.92" style="stop-color:#8F9194"/>
			<stop  offset="1" style="stop-color:#828487"/>
		</linearGradient>
		<path id="Path_74" class="st10" d="M74.1,0.4h2.3c0.2,0,0.3,0,0.3,0.2c0,0.1,0,0.2-0.1,0.2L72.3,8v4.1c0,0.3-0.1,0.5-0.5,0.5h-2.2
			c-0.2,0-0.5-0.1-0.5-0.3V8.1l-4.4-7.2c-0.1-0.1-0.1-0.2-0.1-0.2c0.1-0.2,0.2-0.2,0.5-0.2h2.4c0.3,0,0.7,0.1,0.8,0.5L70.8,5
			l2.5-4.2C73.4,0.5,73.8,0.3,74.1,0.4z"/>
		
			<linearGradient id="Path_75_1_" gradientUnits="userSpaceOnUse" x1="-1802.3247" y1="573.4625" x2="-1802.3247" y2="572.2343" gradientTransform="matrix(10.45 0 0 -10.07 18916.3105 5774.9399)">
			<stop  offset="0" style="stop-color:#FFFFFF"/>
			<stop  offset="0.15" style="stop-color:#EAEAEA"/>
			<stop  offset="0.38" style="stop-color:#D7D8D9"/>
			<stop  offset="0.63" style="stop-color:#B9BABC"/>
			<stop  offset="0.92" style="stop-color:#8F9194"/>
			<stop  offset="1" style="stop-color:#828487"/>
		</linearGradient>
		<path id="Path_75" class="st11" d="M79.7,10.4c-0.2,0-0.2,0-0.3,0.2l-0.7,1.5c-0.1,0.3-0.3,0.5-0.7,0.5h-2.2
			c-0.2,0-0.3-0.1-0.3-0.2c0-0.1,0-0.2,0.1-0.3l5.5-10.9c0.3-0.7,0.6-0.9,0.9-0.9s0.6,0.2,0.9,0.9l5.5,10.9c0,0.1,0.1,0.2,0.1,0.3
			c0,0.2-0.1,0.2-0.3,0.2h-2.3c-0.5,0-0.6-0.1-0.8-0.5l-0.6-1.5c-0.1-0.2-0.1-0.2-0.3-0.2H79.7z M83,7.6l-1-2.4l-1.1,2.4v0.1
			c0,0.1,0,0.1,0.2,0.1H83c0.1,0,0.2,0,0.2-0.1V7.6H83z"/>
		
			<linearGradient id="Path_76_1_" gradientUnits="userSpaceOnUse" x1="-1709.3004" y1="571.5521" x2="-1709.3004" y2="570.3235" gradientTransform="matrix(6.65 0 0 -9.86 11460.6641 5637.3052)">
			<stop  offset="0" style="stop-color:#FFFFFF"/>
			<stop  offset="0.15" style="stop-color:#EAEAEA"/>
			<stop  offset="0.38" style="stop-color:#D7D8D9"/>
			<stop  offset="0.63" style="stop-color:#B9BABC"/>
			<stop  offset="0.92" style="stop-color:#8F9194"/>
			<stop  offset="1" style="stop-color:#828487"/>
		</linearGradient>
		<path id="Path_76" class="st12" d="M97.5,9.7c0.3,0,0.5,0.1,0.5,0.5v1.8c0,0.3-0.1,0.5-0.5,0.5h-7.3c-0.2,0-0.5-0.1-0.5-0.3v-0.1
			V0.9c0-0.3,0.1-0.5,0.5-0.5h2.1c0.5,0,0.6,0.1,0.6,0.5v8.6c0,0.2,0,0.2,0.2,0.2H97.5z"/>
		
			<linearGradient id="Path_77_1_" gradientUnits="userSpaceOnUse" x1="-1753.61" y1="571.5696" x2="-1753.61" y2="570.3414" gradientTransform="matrix(8.06 0 0 -9.86 14236.9053 5636.5454)">
			<stop  offset="0" style="stop-color:#FFFFFF"/>
			<stop  offset="0.15" style="stop-color:#EAEAEA"/>
			<stop  offset="0.38" style="stop-color:#D7D8D9"/>
			<stop  offset="0.63" style="stop-color:#B9BABC"/>
			<stop  offset="0.92" style="stop-color:#8F9194"/>
			<stop  offset="1" style="stop-color:#828487"/>
		</linearGradient>
		<path id="Path_77" class="st13" d="M104.6,3.1c-0.2,0-0.2,0.1-0.2,0.2v8.6c0,0.3-0.1,0.5-0.5,0.5h-2.2c-0.2,0-0.5-0.1-0.5-0.3V3.5
			c0-0.2,0-0.2-0.2-0.2h-2.7c-0.2,0-0.5-0.1-0.5-0.3l0,0v-2c0-0.3,0.1-0.5,0.5-0.5h9c0.3,0,0.5,0.1,0.5,0.5v1.8
			c0,0.3-0.1,0.5-0.5,0.5H104.6z"/>
		
			<linearGradient id="Path_78_1_" gradientUnits="userSpaceOnUse" x1="-1787.6833" y1="571.7089" x2="-1787.6833" y2="570.4807" gradientTransform="matrix(9.62 0 0 -9.87 17312.1777 5641.457)">
			<stop  offset="0" style="stop-color:#FFFFFF"/>
			<stop  offset="0.15" style="stop-color:#EAEAEA"/>
			<stop  offset="0.38" style="stop-color:#D7D8D9"/>
			<stop  offset="0.63" style="stop-color:#B9BABC"/>
			<stop  offset="0.92" style="stop-color:#8F9194"/>
			<stop  offset="1" style="stop-color:#828487"/>
		</linearGradient>
		<path id="Path_78" class="st14" d="M118,0.4h2.3c0.2,0,0.3,0.1,0.3,0.2s0,0.2-0.1,0.2L116.2,8v4.1c0,0.3-0.1,0.5-0.5,0.5h-2.1
			c-0.2,0-0.5-0.1-0.5-0.3V8.1l-4.4-7.2c-0.1-0.1-0.1-0.2-0.1-0.2c0-0.2,0.1-0.2,0.3-0.2h2.5c0.3,0,0.7,0.1,0.8,0.5l2.4,4.2l2.5-4.2
			C117.3,0.5,117.6,0.3,118,0.4z"/>
	</g>
	<g id="Group_35">
		
			<linearGradient id="Path_79_1_" gradientUnits="userSpaceOnUse" x1="-1878.2191" y1="496.6904" x2="-1876.9763" y2="496.6904" gradientTransform="matrix(12.06 0 0 -5.42 22027.2969 2695.8003)">
			<stop  offset="0" style="stop-color:#EFE160"/>
			<stop  offset="1" style="stop-color:#E49541"/>
		</linearGradient>
		<path id="Path_79" class="st15" d="M22.8,0.4H12.5l-2.3,6.7h15L22.8,0.4z"/>
		
			<linearGradient id="Path_80_1_" gradientUnits="userSpaceOnUse" x1="-1834.0756" y1="496.6904" x2="-1832.8328" y2="496.6904" gradientTransform="matrix(7.98 0 0 -5.42 14004.9502 2695.8003)">
			<stop  offset="0" style="stop-color:#EFE160"/>
			<stop  offset="1" style="stop-color:#E49541"/>
		</linearGradient>
		<path id="Path_80" class="st16" d="M10,0.4H5.2L0,7.1h7.6L10,0.4z"/>
		
			<linearGradient id="Path_81_1_" gradientUnits="userSpaceOnUse" x1="-1871.5143" y1="598.6194" x2="-1870.2712" y2="598.6194" gradientTransform="matrix(11.17 0 0 -14.25 20269.3984 8548.6689)">
			<stop  offset="0" style="stop-color:#EFE160"/>
			<stop  offset="1" style="stop-color:#E49541"/>
		</linearGradient>
		<path id="Path_81" class="st17" d="M0,9.6l14,17.5L7.6,9.6H0z"/>
		
			<linearGradient id="Path_82_1_" gradientUnits="userSpaceOnUse" x1="-1871.1185" y1="598.7261" x2="-1869.8755" y2="598.7261" gradientTransform="matrix(11.17 0 0 -14.25 20287.5977 8550.1895)">
			<stop  offset="0" style="stop-color:#EFE160"/>
			<stop  offset="1" style="stop-color:#E49541"/>
		</linearGradient>
		<path id="Path_82" class="st18" d="M21.5,27.1L35.4,9.6h-7.6L21.5,27.1z"/>
		
			<linearGradient id="Path_83_1_" gradientUnits="userSpaceOnUse" x1="-1833.4376" y1="496.6904" x2="-1832.1948" y2="496.6904" gradientTransform="matrix(7.98 0 0 -5.42 14025.5 2695.8003)">
			<stop  offset="0" style="stop-color:#EFE160"/>
			<stop  offset="1" style="stop-color:#E49541"/>
		</linearGradient>
		<path id="Path_83" class="st19" d="M35.4,7.1l-5.2-6.7h-4.8l2.4,6.7H35.4z"/>
		
			<linearGradient id="Path_84_1_" gradientUnits="userSpaceOnUse" x1="-1878.1443" y1="608.1799" x2="-1876.9014" y2="608.1799" gradientTransform="matrix(12.04 0 0 -16.8 21984.3594 10237.292)">
			<stop  offset="0" style="stop-color:#EFE160"/>
			<stop  offset="1" style="stop-color:#E49541"/>
		</linearGradient>
		<path id="Path_84" class="st20" d="M10.2,9.6l7.4,20.6l7.6-20.6H10.2z"/>
	</g>
</g>
</svg>
