<svg xmlns="http://www.w3.org/2000/svg" xmlns:xlink="http://www.w3.org/1999/xlink" viewBox="0 0 75 75"><defs><style>.cls-1{fill:url(#linear-gradient);}.cls-2{fill:#f9f9f9;}</style><linearGradient id="linear-gradient" x1="-1108.51" y1="518.68" x2="-1109.38" y2="517.79" gradientTransform="matrix(75, 0, 0, -75, 83197.9, 38899.82)" gradientUnits="userSpaceOnUse"><stop offset="0" stop-color="#57bfe1"/><stop offset="1" stop-color="#f4fa54"/></linearGradient></defs><g id="Iconos"><g id="tag-new"><path id="Path_53-5" data-name="Path 53-5" class="cls-1" d="M0,42,42.38,0H75L0,75Z"/><g id="Group_32" data-name="Group 32"><g id="Group_31" data-name="Group 31"><path id="Path_61" data-name="Path 61" class="cls-2" d="M18.05,32.86a.36.36,0,0,1,.51-.08l.07.06L25.75,40c.29.28.34.51.17.69s-.4.2-.94.21l-7.67.24L21,44.76c.21.21.2.37,0,.58l-1.33,1.33a.37.37,0,0,1-.51.07s-.05,0-.06-.07l-7.13-7.12c-.28-.29-.34-.52-.16-.69s.4-.2.93-.21l7.67-.24-3.64-3.65a.35.35,0,0,1-.09-.49.24.24,0,0,1,.09-.08Z"/><path id="Path_62" data-name="Path 62" class="cls-2" d="M33.71,32a.38.38,0,0,1,.06.52l-.07.06-4.63,4.63a.36.36,0,0,1-.51.06s0,0-.06-.06L21.38,30.1a.35.35,0,0,1-.09-.49.24.24,0,0,1,.09-.08L26,24.91a.37.37,0,0,1,.51-.08l.07.07,1.19,1.19c.21.21.2.37,0,.58l-2.82,2.82c-.14.14-.12.21,0,.33l.85.86c.14.13.2.13.33,0l2.46-2.46c.21-.21.38-.2.59,0l1.17,1.18a.34.34,0,0,1,.09.48.38.38,0,0,1-.09.09l-2.46,2.46c-.13.13-.12.21,0,.33l.9.9c.12.12.2.13.33,0l2.84-2.84c.21-.2.37-.22.58,0Z"/><path id="Path_63" data-name="Path 63" class="cls-2" d="M38.17,27.33,28.41,23.2a.54.54,0,0,1-.22-.13c-.12-.13-.09-.27.09-.45l1.38-1.38c.27-.28.43-.3.8-.12l4.75,2.11L33.4,18.47c-.21-.56-.22-.75-.06-.91s.34-.15.9.06L39,19.41l-2.08-4.7a.57.57,0,0,1,.12-.8h0l1.37-1.37c.18-.18.32-.21.44-.09a.42.42,0,0,1,.13.22l4.15,9.75c.26.64.3.85.13,1s-.32.12-1-.11l-5.14-2,2,5.15c.24.61.27.8.11,1S38.8,27.59,38.17,27.33Z"/></g></g></g></g></svg>