<svg
    xmlns="http://www.w3.org/2000/svg" viewBox="0 0 75 75">
    <defs>
        <style>.cls-1{fill:#998048;}.cls-2{fill:#f9f9f9;}</style>
    </defs>
    <g id="Iconos">
        <g id="tag-upcoming">
            <path id="Path_53-3" data-name="Path 53-3" class="cls-1" d="M0,42.38,42.57,0H75L.1,75Z"/>
            <g id="Group_30" data-name="Group 30">
                <g id="Group_30-2" data-name="Group 30-2">
                    <path id="Path_53-4" data-name="Path 53-4" class="cls-2" d="M7.13,54.3,4.26,51.44a.24.24,0,0,1-.06-.34A.17.17,0,0,1,4.26,51l.93-.93a.25.25,0,0,1,.41,0l2.75,2.76c.83.83,1.66.9,2.37.19s.65-1.54-.18-2.37L7.78,47.92a.24.24,0,0,1-.06-.34l.06-.06.93-.93a.24.24,0,0,1,.4,0L12,49.43a3.18,3.18,0,0,1,.36,4.49,4,4,0,0,1-.42.4,3.07,3.07,0,0,1-4.32.44A2.79,2.79,0,0,1,7.13,54.3Z"/>
                    <path id="Path_54" data-name="Path 54" class="cls-2" d="M17.29,48.34c.15.14.14.26,0,.41l-.92.92a.27.27,0,0,1-.36,0l0,0-5-5a.24.24,0,0,1-.06-.34l.06-.06,1.8-1.8q2.37-2.37,4.31-.43c1.31,1.31,1.13,2.83-.44,4.4l-.5.5c-.09.1-.08.15,0,.23Zm-2.58-2.58c.08.08.14.09.23,0l.5-.5c.68-.69.79-1.3.29-1.8s-1.06-.38-1.76.32l-.5.5c-.09.1-.09.15,0,.23Z"/>
                    <path id="Path_55" data-name="Path 55" class="cls-2" d="M24.53,38.21c0-.06.12-.06.23-.05l1.07.19a.32.32,0,0,1,.17.09.37.37,0,0,1,.06.29,4.42,4.42,0,0,1-1.28,2.73,3.87,3.87,0,0,1-5.46.24l-.14-.14A3.92,3.92,0,0,1,19.09,36l.19-.18A4.31,4.31,0,0,1,22,34.58a.27.27,0,0,1,.23.05.34.34,0,0,1,.09.19l.18,1.07a.28.28,0,0,1,0,.25.47.47,0,0,1-.22.09,3,3,0,0,0-1.72.84,2.09,2.09,0,0,0-.09,3,.74.74,0,0,0,.13.12,2.09,2.09,0,0,0,3,.13l.11-.1a3,3,0,0,0,.84-1.75A.35.35,0,0,1,24.53,38.21Z"/>
                    <path id="Path_56" data-name="Path 56" class="cls-2" d="M31,29.69a3.87,3.87,0,0,1,.1,5.48l-.2.2a3.85,3.85,0,0,1-5.43.27l-.19-.19A3.88,3.88,0,0,1,25.14,30l.18-.17a3.85,3.85,0,0,1,5.44-.3A2,2,0,0,1,31,29.69ZM29.6,31.08a2.09,2.09,0,0,0-2.94-.18,1.14,1.14,0,0,0-.11.11,2.07,2.07,0,0,0,0,2.94.57.57,0,0,0,.11.11,2.06,2.06,0,0,0,2.9.2l.13-.13a2.1,2.1,0,0,0,0-3Z"/>
                    <path id="Path_57" data-name="Path 57" class="cls-2" d="M36.4,29.63l-.92.93a.26.26,0,0,1-.36,0l0,0-4.95-4.95c-.19-.19-.23-.36-.11-.48s.25-.11.56-.1l4.6.18L35,20.63c0-.34,0-.47.1-.56s.28-.09.47.1l4.95,4.95a.24.24,0,0,1,.06.34.12.12,0,0,1-.06.06l-.93.93a.25.25,0,0,1-.35.05l0,0-2.31-2.32L37,26.49c0,.3,0,.41-.08.5s-.21.1-.49.07l-2.35-.15,2.32,2.32C36.56,29.37,36.55,29.48,36.4,29.63Z"/>
                    <path id="Path_58" data-name="Path 58" class="cls-2" d="M42.81,23.22a.25.25,0,0,1-.35.05.12.12,0,0,1-.05-.05l-5-5a.25.25,0,0,1-.06-.34.17.17,0,0,1,.06-.06l.93-.93a.25.25,0,0,1,.41,0l5,5c.15.14.14.26,0,.4Z"/>
                    <path id="Path_59" data-name="Path 59" class="cls-2" d="M45,10.33a.25.25,0,0,1,.35-.06l.05.05,5,5c.2.2.24.36.11.48s-.27.14-.65.15l-5.35.16L47,18.63a.24.24,0,0,1,0,.4l-.93.93a.25.25,0,0,1-.35.05l0-.05-5-5q-.3-.3-.12-.48c.1-.1.28-.14.65-.15l5.35-.17-2.54-2.54a.24.24,0,0,1-.06-.34.17.17,0,0,1,.06-.06Z"/>
                    <path id="Path_60" data-name="Path 60" class="cls-2" d="M55.13,11.1a3.81,3.81,0,0,1-5.37.32l-.21-.2a3.91,3.91,0,0,1-.18-5.5l.26-.25a5,5,0,0,1,2.61-1.39.32.32,0,0,1,.3,0,.35.35,0,0,1,.1.21l.22,1a.24.24,0,0,1-.06.28.35.35,0,0,1-.19.1,3.88,3.88,0,0,0-1.75,1,2.09,2.09,0,0,0-.11,3,1,1,0,0,0,.15.14,2.06,2.06,0,0,0,2.91.19L54,9.86a3.32,3.32,0,0,0,.68-.94.2.2,0,0,0-.06-.28L53.49,7.56c-.14-.15-.15-.26,0-.41l.93-.93c.15-.15.26-.14.41,0L56.6,8a.39.39,0,0,1,.11.49A6.41,6.41,0,0,1,55.13,11.1Z"/>
                </g>
            </g>
        </g>
    </g>
</svg>