<svg data-name="Layer 1" xmlns="http://www.w3.org/2000/svg" xmlns:xlink="http://www.w3.org/1999/xlink" viewBox="0 0 148.08 148.32"><defs><linearGradient id="a" x1="12.04" y1="74.16" x2="136.04" y2="74.16" gradientUnits="userSpaceOnUse"><stop offset="0" stop-color="#856427"/><stop offset=".51" stop-color="#d0b879"/><stop offset="1" stop-color="#846c2a"/></linearGradient><linearGradient id="b" x1="57.97" y1="63.76" x2="90.12" y2="63.76" xlink:href="#a"/><linearGradient id="c" x1="52.95" y1="96.14" x2="95.13" y2="96.14" xlink:href="#a"/><linearGradient id="d" x1="64.86" y1="49.08" x2="75.32" y2="49.08" xlink:href="#a"/></defs><path d="M74 136.16a62 62 0 1162-62 62.07 62.07 0 01-62 62zm0-121a59 59 0 1059 59 59.07 59.07 0 00-59-59z" fill="url(#a)"/><path d="M74 40.6a16.09 16.09 0 00-3.85 31.7v14.62h7.75V72.3A16.09 16.09 0 0074 40.6zm-.39 2.57a13.51 13.51 0 11-9.3 4.09 13.53 13.53 0 019.3-4.09zm-.89 29.55a15.75 15.75 0 002.57 0v11.62h-2.53z" fill="url(#b)"/><path d="M64.38 84.56a3.86 3.86 0 00.15 7.71h-3.86a3.87 3.87 0 000 7.73H56.8a3.86 3.86 0 000 7.72h34.48a3.86 3.86 0 000-7.72h-3.71a3.87 3.87 0 00-.15-7.73H83.7a3.86 3.86 0 00-.14-7.71H64.38zm.11 2.57h19.07a1.29 1.29 0 010 2.58 2.57 2.57 0 000 5.14h3.86a1.29 1.29 0 010 2.57 2.58 2.58 0 000 5.16h3.86a1.27 1.27 0 011.2 1.28 1.29 1.29 0 01-1.2 1.29H56.81a1.3 1.3 0 01-1.21-1.29 1.28 1.28 0 011.21-1.28h3.86a2.58 2.58 0 000-5.16 1.29 1.29 0 010-2.57h3.86a2.57 2.57 0 000-5.14 1.29 1.29 0 010-2.58z" fill="url(#c)"/><path d="M65.09 50.39a11 11 0 019-4.65 1.29 1.29 0 010 2.58 8.35 8.35 0 00-6.84 3.55 1.29 1.29 0 01-2.11-1.48z" fill="url(#d)"/></svg>