<svg data-name="Layer 1" xmlns="http://www.w3.org/2000/svg" xmlns:xlink="http://www.w3.org/1999/xlink" viewBox="0 0 148.08 148.32"><defs><linearGradient id="a" x1="34.68" y1="74.16" x2="107.89" y2="74.16" gradientUnits="userSpaceOnUse"><stop offset="0" stop-color="#856427"/><stop offset=".51" stop-color="#d0b879"/><stop offset="1" stop-color="#846c2a"/></linearGradient><linearGradient id="b" x1="12.04" y1="74.16" x2="136.04" y2="74.16" xlink:href="#a"/></defs><path d="M107.49 87.86l-8.55-20.22V45.75a5.52 5.52 0 00-5.47-5.46h-6.11l-.55-1.24a5.52 5.52 0 00-7.18-2.91l-9.72 4.14H59.33a5.52 5.52 0 00-5.47 5.47v1.38l-5.64 2.39a5.5 5.5 0 00-2.9 7.18l8.54 20.21v1.15C53.23 78 52.6 78 52 77.94a17.33 17.33 0 000 34.66h.05A17.29 17.29 0 0066 105.51a5.51 5.51 0 005 3.33 6.27 6.27 0 002.13-.43l9.87-4.14h10.6A5.54 5.54 0 0099 98.8v-1.38l5.65-2.4a5.62 5.62 0 002.84-7.16zm-3.91 4.78l-4.64 2V74.38l6.15 14.53a2.94 2.94 0 01-1.51 3.73zM76.22 104.2l-4.12 1.74a2.89 2.89 0 01-3.72-1.5l-.1-.24zM47.67 53.41a2.85 2.85 0 011.54-1.57l4.65-2v20.33l-6.15-14.61a2.74 2.74 0 01-.04-2.15zm28.91-13.13l4.12-1.74a3 3 0 011.11-.22A2.91 2.91 0 0184.5 40l.1.24zm-25 67.12v2.52a15 15 0 01-5-1l.94-2.33a12.12 12.12 0 004.1.81zm-11-16.58a12.59 12.59 0 00-.78 4h-2.49a12.19 12.19 0 011-5zm.19 9.38a13.8 13.8 0 002.26 3.4l-1.76 1.76a15.57 15.57 0 01-2.83-4.21zM47 84a13 13 0 00-3.4 2.27l-1.8-1.74a14.24 14.24 0 014.28-2.83zm5.27-1.12V80.4a14.63 14.63 0 015 1l-1 2.33a12.54 12.54 0 00-3.97-.82zm-9.9 12.31A9.59 9.59 0 0152 85.6a9.59 9.59 0 11-9.59 9.59zM62.61 85a15.72 15.72 0 012.83 4.21l-2.31.94a11.57 11.57 0 00-2.27-3.4zm-3.92-5.81a17.4 17.4 0 00-2.3-.8V45.76a2.87 2.87 0 012.86-2.87h34.14a2.87 2.87 0 012.85 2.86V99h.07a2.87 2.87 0 01-2.84 2.53H68.1a17.44 17.44 0 00-9.41-22.31zM57 106.35a12.63 12.63 0 003.39-2.26l1.76 1.76a15.11 15.11 0 01-4.15 2.83zm9.7-10.89a15.14 15.14 0 01-1 5l-2.33-1a12.54 12.54 0 00.78-4zm26.86 1.42L91 99.44a.78.78 0 01-.46.16.68.68 0 01-.38-.12l-2.61-2.6a2.12 2.12 0 01-.09-3 2 2 0 011.54-.63h.3l-.3-.6a.49.49 0 010-.44.54.54 0 01.5-.33h2.08a.53.53 0 01.47.24.48.48 0 010 .5l-.3.69H92a2.54 2.54 0 011.49.56l.11.11a2 2 0 01.55 1.47 2 2 0 01-.61 1.43zM55.38 95a4 4 0 011.09 2.82 3.93 3.93 0 01-3 3.41v1.23a.7.7 0 01-.64.66h-1.51a.68.68 0 01-.66-.64v-1.16a3.42 3.42 0 01-2.88-3 .7.7 0 01.64-.7h1.46a.61.61 0 01.59.56.64.64 0 00.61.48h1.3a1.21 1.21 0 001.17-1 .49.49 0 000-.13 1.09 1.09 0 00-1.09-1.07h-1a3.79 3.79 0 01-3.94-3.37 3.85 3.85 0 013-4.24v-1.11a.68.68 0 01.64-.66h1.39a.69.69 0 01.66.64V89a3.4 3.4 0 012.88 3 .68.68 0 01-.63.7h-1.41a.61.61 0 01-.59-.56.6.6 0 00-.59-.48h-1.4a1.21 1.21 0 00-1.17 1 .45.45 0 000 .12 1.09 1.09 0 00.33.77 1 1 0 00.77.31h1.48a3.94 3.94 0 012.5 1.14zm29.44-25.8A5.55 5.55 0 0181 78.79h-.06a5.54 5.54 0 01-2-.4l1.53 3.44a1 1 0 01.07.36 1 1 0 01-.28.66.81.81 0 01-.67.26h-6.38a.84.84 0 01-.37-.09.9.9 0 01-.47-.51.94.94 0 010-.7l1.52-3.43a5.66 5.66 0 01-2.09.4h-.07a5.44 5.44 0 01-3.86-1.62 5.64 5.64 0 010-7.85l7.61-7.62a1.34 1.34 0 011.76 0zM65.35 47.51a2.12 2.12 0 01.09 3 2 2 0 01-1.55.67h-.3l.29.64a.46.46 0 010 .44.54.54 0 01-.5.33h-2.04a.49.49 0 01-.47-.74l.32-.73a2.55 2.55 0 01-.39 0 2.14 2.14 0 01-1.46-.57 2.18 2.18 0 010-3L61.89 45a.71.71 0 01.84 0h.05z" fill="url(#a)"/><path d="M74 136.16a62 62 0 1162-62 62.07 62.07 0 01-62 62zm0-121a59 59 0 1059 59 59.07 59.07 0 00-59-59z" fill="url(#b)"/></svg>