<svg data-name="Layer 1" xmlns="http://www.w3.org/2000/svg" xmlns:xlink="http://www.w3.org/1999/xlink" viewBox="0 0 148.08 148.32"><defs><linearGradient id="a" x1="12.04" y1="74.16" x2="136.04" y2="74.16" gradientUnits="userSpaceOnUse"><stop offset="0" stop-color="#856427"/><stop offset=".51" stop-color="#d0b879"/><stop offset="1" stop-color="#846c2a"/></linearGradient><linearGradient id="b" x1="33.28" y1="73.16" x2="116.42" y2="73.16" xlink:href="#a"/></defs><path d="M74 136.16a62 62 0 1162-62 62.07 62.07 0 01-62 62zm0-121a59 59 0 1059 59 59.07 59.07 0 00-59-59z" fill="url(#a)"/><path data-name="Group 25" d="M51.06 76.14l-3-.62c-.17 0-.26-.08-.35-.26l-1.49-2.63a.49.49 0 00-.67-.2.55.55 0 00-.2.2l-1.49 2.63a1.1 1.1 0 01-.35.26l-2.81.62a.48.48 0 00-.37.57.65.65 0 00.11.22l2.1 2.19c.09.08.18.26.09.35l-.35 3c-.09.34.35.61.7.52l2.72-1.31a.38.38 0 01.43 0L48.87 83c.35.18.7-.09.7-.52l-.34-3c0-.18 0-.27.08-.35l2.1-2.2a.54.54 0 00-.24-.74zm13.23 3c.09.08.17.26.09.35l-.35 3c-.09.34.35.61.7.52l2.72-1.31a.38.38 0 01.43 0l2.71 1.3c.35.18.71-.09.71-.52l-.35-3c0-.18 0-.27.08-.35l2.11-2.2a.5.5 0 000-.68.65.65 0 00-.22-.11l-3-.61c-.18 0-.27-.09-.35-.26l-1.49-2.63a.49.49 0 00-.67-.2.45.45 0 00-.21.2l-1.49 2.63a1 1 0 01-.35.26l-3 .61a.49.49 0 00-.37.57.51.51 0 00.11.22zm30.4-3l-3-.62c-.17 0-.26-.08-.35-.26l-1.49-2.63a.49.49 0 00-.67-.2.43.43 0 00-.2.2l-1.49 2.63a1.1 1.1 0 01-.35.26l-3 .62a.47.47 0 00-.37.57.42.42 0 00.11.22L86 79.12c.09.08.17.26.09.35l-.35 3c-.09.34.35.61.7.52l2.71-1.31a.39.39 0 01.44 0L92.32 83c.35.18.7-.09.7-.52l-.34-3c0-.18 0-.27.09-.35l2.1-2.2a.44.44 0 00.11-.6.43.43 0 00-.29-.19zm14.63-28.39a7.17 7.17 0 00-1.49 14.19v11.48a2.77 2.77 0 01-2.73 2.8h-3V69a5.09 5.09 0 00-5.1-5.13h-.88v-2.71a8.52 8.52 0 00-8.5-8.5h-3.79a18.46 18.46 0 00-32.24 0h-3.86a8.5 8.5 0 00-8.49 8.5v2.72h-.88A5.08 5.08 0 0033.28 69v18a5.08 5.08 0 005.08 5h.87v2.63a8.52 8.52 0 008.5 8.5h39.86a8.51 8.51 0 008.5-8.5V92H97a5.09 5.09 0 005.08-5.07v-7.29h2.89a6.15 6.15 0 006.13-6.13V62a7.18 7.18 0 005.35-7 7.09 7.09 0 00-7-7.19zM67.7 46.61A14.83 14.83 0 0180 52.75H55.44a14.9 14.9 0 0112.27-6.14zM42.65 61.24a5.17 5.17 0 015.17-5.16h39.86a5.17 5.17 0 015.17 5.16V64h-50.2zm34.26 6.05v21.46h-18.4V67.29zM38.36 88.75A1.76 1.76 0 0136.61 87V69a1.77 1.77 0 011.75-1.75h16.73v21.42H38.36zm54.4 6a5.18 5.18 0 01-5.17 5.25H47.73a5.19 5.19 0 01-5.17-5.17v-2.66h50.12v2.63zm6-7.8a1.75 1.75 0 01-1.76 1.8H80.24V67.29H97A1.75 1.75 0 0198.72 69zm10.6-28.21a3.86 3.86 0 113.85-3.85 3.88 3.88 0 01-3.89 3.9z" fill="url(#b)"/></svg>