<svg data-name="Layer 1" xmlns="http://www.w3.org/2000/svg" xmlns:xlink="http://www.w3.org/1999/xlink" viewBox="0 0 148.08 148.32"><defs><linearGradient id="a" x1="47.64" y1="74.16" x2="100.44" y2="74.16" gradientUnits="userSpaceOnUse"><stop offset="0" stop-color="#856427"/><stop offset=".51" stop-color="#d0b879"/><stop offset="1" stop-color="#846c2a"/></linearGradient><linearGradient id="b" x1="12.04" y1="74.16" x2="136.04" y2="74.16" xlink:href="#a"/></defs><path data-name="Path 38" d="M98.18 71.46l-3.87-4.95A3.68 3.68 0 0091 65.14a3.28 3.28 0 00-.82.2c2.47-9.73 2.11-35.41-16.26-33.79-18.38-1.62-16.78 26.72-16.09 34a3.68 3.68 0 00-1.42-.55 3.71 3.71 0 00-3.27 1.4l-2.89 3.68A12.23 12.23 0 0048 80.51l8.54 35.27a1.4 1.4 0 001.34 1.07h34.39a1.4 1.4 0 001.35-1.14L100.26 80a10.63 10.63 0 00-2.08-8.54zM60.12 52.24c.31-2.8 2.68-2 3.36-1.77v-1.85h21.83v1.24c.86-.08 3.36-.32 3.36 2.11 0 3.92-4.61 13.17-4.92 13.7A11 11 0 0180.69 69l7-.91c-3 6.37-8.67 20.82-11.89 29.11a.84.84 0 01-.75.54.86.86 0 01-.79-.48c-3.45-7.07-11.74-24-14.79-29.95l9.08 1.42h.32c-.23-.17-.47-.35-.69-.54s-3.43-3.28-4-4.65c.03-.02-4.52-7.32-4.06-11.3zm37.43 27.21L91.12 114H58.94l-8.28-34.2a9.38 9.38 0 011.73-8l2.89-3.68a1 1 0 01.85-.36.94.94 0 01.76.52c3 5.75 11.39 23 14.89 30.13a3.6 3.6 0 003.38 2 3.56 3.56 0 003.19-2.31c3.35-8.63 9.4-24 12.19-29.74a1 1 0 011.62-.2L96 73.2a7.83 7.83 0 011.55 6.25zm-17.78-4.8v4.68s-.43 1.73-2.2 0L76 77.83a2.35 2.35 0 01-1.61.61 2.28 2.28 0 01-1.63-.64l-1.59 1.54c-1.78 1.72-2.21 0-2.21 0v-4.69c.59-2.59 2.12-.36 2.12-.36l1.63 1.77a2.42 2.42 0 013.34 0l1.61-1.75s1.53-2.24 2.11.34zm-6.48-4h.13-.12zm0 0a11.2 11.2 0 01-1.41-.36 11.35 11.35 0 001.42.36zm-1.77-.5l.36.14-.36-.13zm0 0c-.32-.12-.63-.26-.94-.41a8.71 8.71 0 00.94.42zm-1.7-.82c.25.14.5.28.76.41a7.07 7.07 0 01-.76-.41zm0 0a10.34 10.34 0 01-1-.6l.86.55h.1zm10.36 0l.51-.31c-.19.14-.4.24-.59.36h.09zm-5 1.52h-.16a9.71 9.71 0 005.08-1.44 9.43 9.43 0 01-4.84 1.46zm-1.76-.15a10.69 10.69 0 001.6.14 9.51 9.51 0 01-1.6-.13z" fill="url(#a)"/><path d="M74 136.16a62 62 0 1162-62 62.07 62.07 0 01-62 62zm0-121a59 59 0 1059 59 59.07 59.07 0 00-59-59z" fill="url(#b)"/></svg>